#define max_toggled_pressed_width 11
#define max_toggled_pressed_height 10
static unsigned char max_toggled_pressed_bits[] = {
0xff, 0x07, 0xff, 0x07, 0x01, 0x04, 0x01, 0x04, 0x01, 0x04, 0x01, 0x04, 0x01, 0x04, 0x01, 0x04, 0x01, 0x04, 0xff, 0x07 };
